<svg xmlns="http://www.w3.org/2000/svg" width="512" height="357"><path fill="#311508" fill-rule="evenodd" d="M95.898 83.643c20.265 0 41.032 2.37 54.085 18.535v-17.96h62.511v184.269h-62.511v-20.475h-.687c-10.993 18.32-32.788 21.657-53.398 21.657C43.69 269.669 10 228.616 10 175.814c0-52.8 33.69-92.171 85.898-92.171zM472.793 3v81.428H503v53.691h-30.207v129.933h-66.72V138.12H375.82V84.428h30.251V3h66.721zM291.915 84.833v.096c.007.65.043 4.488.068 8.687l.003.617.002.31.004.784.002.392.003.782c.005 1.17.008 2.317.01 3.382v.698c-.002 2.736-.022 4.793-.078 5.028l-.003.01.534-.466c17.955-15.628 31.691-20.269 57.705-20.269h12.494v53.287c-.002.001-.006.003-.014.003h-.02c-.234-.007-1.764-.214-8.54-.435-34.061 0-62.17 16.242-62.17 56.099v73.778h-64.966V84.833h64.966zm-180.06 50.033c-25.415 0-40.184 19.036-40.184 41.666 0 23.346 14.769 41.306 40.185 41.306 25.417 0 40.187-17.96 40.187-41.306 0-22.63-14.77-41.666-40.187-41.666zM38.809 7.02c18.097 0 33.006 14.193 33.006 32.428 0 18.236-14.995 32.43-33.006 32.43H14.852V7.021h23.956zm113.895 0l30.939 39.654h.17V7.02h16.89V71.88h-16.89l-30.936-39.74h-.173v39.74h-16.89V7.021h16.89zm74.352 0l15.684 39.395 15.77-39.395h18.356l-27.748 64.857h-13.099L208.701 7.02h18.354zM364.32 7.02c12.84 0 22.579 6.11 22.579 19.956 0 8.946-4.997 16.688-14.22 18.322l20.423 26.58h-21.026l-15.94-24.945h-.174v24.945h-16.89V7.02h25.248zm-40.43 0V21.3h-21.792V32.14h20.759v14.277h-20.759v11.182h21.792v14.28h-38.68V7.02h38.68zm-203.061 0V21.3H99.036V32.14h20.757v14.277H99.036v11.182h21.793v14.28H82.146V7.02h38.683zM35.707 21.3h-3.964v36.3h3.793c10.08 0 18.697-5.505 18.697-18.15 0-11.612-7.667-18.15-18.526-18.15zm322.14-1.377h-1.885v16.172h1.637c5.517 0 11.719-1.031 11.719-8.085 0-6.95-6.018-8.056-11.472-8.087zM27.177 280.493h18.584l14.732 38.736 15.6-38.736H94.87l10.977 72.474H86.975l-5.297-41.716h-.192l-17.428 41.716h-7.511l-16.66-41.716h-.191l-6.066 41.716H14.852l12.326-72.474m152.868 0v40.755c0 9.322-.384 18.55-7.606 25.567-6.067 5.96-15.6 8.075-24.075 8.075-8.473 0-18.004-2.116-24.072-8.075-7.221-7.017-7.607-16.245-7.607-25.567v-40.755h18.873v38.158c0 9.422.674 19.707 12.806 19.707 12.134 0 12.809-10.285 12.809-19.707v-38.158h18.872m53.975 18.648c-3.467-2.884-7.897-4.807-12.516-4.807-3.467 0-8.09 2.02-8.09 6.055 0 4.23 5.103 5.864 8.378 6.921l4.815 1.444c10.11 2.978 17.908 8.074 17.908 19.798 0 7.21-1.731 14.61-7.507 19.511-5.682 4.809-13.29 6.827-20.608 6.827-9.146 0-18.104-3.075-25.52-8.267l8.091-15.186c4.719 4.133 10.302 7.496 16.755 7.496 4.43 0 9.146-2.212 9.146-7.306 0-5.287-7.415-7.11-11.458-8.267-11.843-3.363-19.645-6.438-19.645-20.471 0-14.706 10.497-24.319 25.037-24.319 7.317 0 16.275 2.308 22.727 5.961l-7.513 14.61m45.349-2.69v12.11h24.708v15.955H279.37v12.494h25.863v15.957h-44.735v-72.476h44.735v15.96H279.37m105.203-15.958v40.755c0 9.322-.384 18.55-7.605 25.567-6.068 5.96-15.602 8.075-24.074 8.075-8.474 0-18.006-2.116-24.074-8.075-7.221-7.017-7.607-16.245-7.607-25.567v-40.755h18.873v38.158c0 9.422.674 19.707 12.808 19.707 12.132 0 12.807-10.285 12.807-19.707v-38.158h18.872m21.448 0h18.584l14.733 38.736 15.598-38.736h18.778l10.978 72.474h-18.875l-5.296-41.716h-.19l-17.429 41.716h-7.513l-16.659-41.716h-.19l-6.066 41.716h-18.777l12.324-72.474"/></svg>