<svg height="152" viewBox="0 0 425 152" width="425" xmlns="http://www.w3.org/2000/svg"><g fill="#fff" fill-rule="evenodd" transform="translate(.94)"><path d="m6.918 114.533926h18.189c13.467 0 21.512-8.569 21.512-22.0370003 0-13.816-8.745-21.686-22.386-21.686h-7.346c-7.378.386-9.969 6.296-9.969 10.844zm0-39.9770003s.936-1.831 3.211-3.47c2.189-1.577 4.447-1.906 9.153-2.071 7.772-.272 19.292-6.075 19.292-18.144 0-11.892-6.996-19.238-18.714-19.238h-12.942zm-6.918-44.322h20.735c13.117 0 26.584 5.596 26.584 20.637 0 9.445-9.969 17.315-19.064 18.539 13.117 1.225 27.809 8.745 27.809 23.086 0 16.4410003-14.517 23.2620003-29.033 23.4370003l-26.943-.002zm76.877 75.0300003c0 4.722 1.574 7.171 3.673 7.171 1.399 0 2.798-.874 4.372-2.623l.35.349c-2.274 4.198-5.072 5.947-8.045 5.947-5.422 0-6.996-4.547-7.346-10.144v-51.2450003c4.197 0 6.996 2.799 6.996 6.996zm-8.92-65.2360003c0-2.973 2.099-4.897 5.072-4.897s4.897 1.924 4.897 4.897-1.924 4.897-4.897 4.897-5.072-1.924-5.072-4.897zm31.482 43.024c0 14.167 8.92 31.4810003 24.486 31.4810003 13.642 0 20.462-14.166 20.462-26.7580003 0-14.342-8.744-31.482-24.31-31.482-13.642 0-20.638 14.167-20.638 26.759zm22.737-28.508c16.965 0 30.781 13.817 30.781 30.782 0 16.9650003-13.641 30.7820003-30.606 30.7820003-17.14 0-30.957-13.817-30.957-30.7820003 0-16.965 13.817-30.782 30.782-30.782zm50.371 29.208c0 14.692 3.498 30.4320003 20.288 30.4320003 29.384 0 21.163-58.9410003-.699-58.9410003-14.342 0-19.589 16.79-19.589 28.509zm-.175-20.812c4.723-5.422 11.719-8.745 20.288-8.745 32.531 0 39.527 62.2620003 2.099 62.2620003-9.444 0-17.14-3.673-22.387-9.619v4.897c0 14.867-7.695 39.876-23.785 39.876v-7.345c2.273.7 4.372 1.05 6.121 1.05 11.543 0 10.669-14.342 10.669-29.208v-61.3890003h.524c4.023 0 6.471 2.624 6.471 6.646z"/><path d="m229.487 60.0889257c0-24.047-4.456-36.379-18.289-36.379-2.661 0-5.676.355-9.223 1.064v-7.448c16.317 0 34.584 14.897 34.584 40.613l.002 1.838v8.235c5.072-8.569 14.692-13.991 23.261-13.991 9.444 0 17.665 6.296 17.665 21.686v29.5580003c0 4.722 1.574 7.171 3.673 7.171 1.398 0 2.798-.874 4.372-2.623l.35.349c-2.274 4.198-5.073 5.947-8.22 5.947-5.772 0-7.171-5.597-7.171-11.893v-30.0820003c0-12.243-6.472-17.315-13.816-17.315-7.697 0-16.616 5.596-20.114 14.167v44.9480003h-6.996v-53.8980003zm71.784 45.1760003c0 4.722 1.575 7.171 3.673 7.171 1.399 0 2.798-.874 4.372-2.623l.35.349c-2.274 4.198-5.071 5.947-8.045 5.947-5.422 0-6.996-4.547-7.346-10.144v-51.2450003c4.197 0 6.996 2.799 6.996 6.996zm-8.92-65.2360003c0-2.973 2.099-4.897 5.073-4.897 2.972 0 4.896 1.924 4.896 4.897s-1.924 4.897-4.896 4.897c-2.974 0-5.073-1.924-5.073-4.897zm46.987-14.255c-7.627 2.144-13.055 9.894-13.055 28.946v50.5450003c0 4.722 1.574 7.171 3.673 7.171 1.398 0 2.798-.874 4.372-2.623l.35.349c-2.274 4.198-5.072 5.947-8.22 5.947-5.772 0-7.171-5.597-7.171-11.893v-45.1230003c0-16.681 6.705-28.265 16.724-34.401 3.41-2.088 4.981-2.813 4.981-2.813 7.913-4.173 5.518-8.155 14.216-16.39299996 8.699-8.239 31.43-4.754 31.43-4.754.26 5.789-9.286 19.26999996-18.765 23.46699996-9.48 4.197-23.438.143-28.535 1.575"/><path d="m353.043 105.264926c0 4.722 1.574 7.171 3.673 7.171 1.398 0 2.797-.874 4.372-2.623l.349.349c-2.273 4.198-5.071 5.947-8.045 5.947-5.421 0-6.996-4.547-7.345-10.144v-51.2450003c4.197 0 6.996 2.799 6.996 6.996zm-8.92-65.2360003c0-2.973 2.098-4.897 5.072-4.897 2.973 0 4.897 1.924 4.897 4.897s-1.924 4.897-4.897 4.897c-2.974 0-5.072-1.924-5.072-4.897zm64.013 32.005c0-2.972-.525-5.596-1.4-7.87 1.749 18.015-31.656 15.567-31.831 36.0300003 0 8.744 6.121 13.117 13.117 13.117 8.745 0 18.714-6.472 20.114-19.2390003zm0 28.6840003c-4.198 11.018-13.467 15.74-22.038 15.74-9.794 0-18.888-6.121-18.888-15.915 0-21.5130003 43.723-17.4900003 37.952-39.7020003-2.274-3.497-5.946-5.597-10.144-5.597-10.843 0-19.414 10.669-18.189 20.463h-8.22c2.623-13.292 16.09-21.511 27.634-21.511 12.767 0 18.889 7.695 18.889 22.736v28.3330003c0 4.722 1.574 7.171 3.672 7.171 1.399 0 2.798-.874 4.373-2.623l.349.349c-2.273 4.198-5.072 5.947-8.045 5.947-5.596 0-7.171-5.248-7.345-11.194z"/><path d="m189.447 141.709v-11.708h1.834v15.775h-.682l-9.874-11.919v11.661h-1.834v-15.775h.658z"/><path d="m198.663 140.721926h6.207l-3.08-7.594zm10.204 4.796h-1.975l-1.34-3.15h-7.571l-1.316 3.15h-1.951l6.747-15.775h.659z"/><path d="m221.586 131.646h-5.455v13.872h-1.833v-13.872h-5.454v-1.645h12.742z"/><path d="m236.892 139.357926c0 1.034-.156 1.951-.47 2.751-.314.799-.744 1.469-1.294 2.011-.548.54-1.198.951-1.951 1.233-.752.282-1.567.423-2.445.423-.893 0-1.716-.141-2.468-.423-.753-.282-1.403-.693-1.951-1.233-.549-.542-.976-1.212-1.282-2.011-.305-.8-.459-1.717-.459-2.751v-9.357h1.834v9.474c0 .785.114 1.466.341 2.046.227.581.533 1.058.917 1.435.384.375.838.657 1.364.846.525.188 1.093.282 1.704.282.596 0 1.156-.094 1.682-.282.524-.189.982-.471 1.375-.846.391-.377.701-.854.929-1.435.226-.58.34-1.261.34-2.046v-9.474h1.834zm6.513-7.712v5.714h3.55c1.035 0 1.818-.262 2.351-.788.533-.525.799-1.211.799-2.057 0-.831-.266-1.516-.799-2.058-.533-.54-1.316-.811-2.351-.811zm3.62-1.645c.768 0 1.459.11 2.07.329.611.22 1.131.529 1.563.928.431.401.764.874.999 1.423s.353 1.152.353 1.811c0 1.065-.29 1.979-.87 2.738-.58.761-1.388 1.282-2.422 1.564l4.985 6.724h-2.14l-4.843-6.513h-3.315v6.513h-1.834v-15.517z"/><path d="m266.727 131.646h-8.111v4.749h6.206v1.647h-6.206v5.831h8.393v1.645h-10.227v-15.517h9.945z"/><path d="m282.754 131.645926v5.714h3.55c1.035 0 1.819-.262 2.352-.788.533-.525.799-1.211.799-2.057 0-.831-.266-1.516-.799-2.058-.533-.54-1.317-.811-2.352-.811zm3.621-1.645c.768 0 1.458.11 2.069.329.611.22 1.132.529 1.563.928.431.401.764.874.999 1.423.236.549.353 1.152.353 1.811 0 1.065-.29 1.979-.869 2.738-.581.761-1.388 1.282-2.422 1.564l4.984 6.724h-2.14l-4.842-6.513h-3.316v6.513h-1.834v-15.517z"/><path d="m306.077 131.646h-8.111v4.749h6.207v1.647h-6.207v5.831h8.394v1.645h-10.228v-15.517h9.945z"/><path d="m310.027 145.518h1.834v-15.517h-1.834z"/><path d="m330.998 145.518h-1.834v-11.167l-4.984 6.771h-.634l-5.009-6.795v11.191h-1.834v-15.775h.659l6.489 8.98 6.489-8.98h.658z"/><path d="m338.38 140.721926h6.207l-3.08-7.594zm10.204 4.796h-1.975l-1.339-3.15h-7.571l-1.317 3.15h-1.951l6.747-15.775h.659zm10.062-15.775c1.332 0 2.535.282 3.609.846 1.073.564 1.971 1.339 2.692 2.327l-1.363 1.082c-.581-.8-1.282-1.426-2.105-1.881s-1.768-.682-2.833-.682c-.894 0-1.72.161-2.481.482-.759.321-1.41.764-1.951 1.329-.54.563-.964 1.23-1.269 1.998-.306.768-.458 1.598-.458 2.492 0 .909.156 1.752.47 2.528.313.776.744 1.45 1.292 2.022.549.571 1.207 1.022 1.975 1.351.769.329 1.607.494 2.516.494 1.175 0 2.202-.258 3.08-.776s1.567-1.183 2.069-1.998v-2.093h-5.266v-1.646h7.1v4.138c-.329.596-.741 1.141-1.235 1.634-.494.494-1.046.917-1.657 1.27-.612.353-1.269.627-1.975.823-.705.195-1.442.293-2.21.293-1.128 0-2.186-.207-3.174-.622-.987-.416-1.841-.98-2.562-1.693-.722-.713-1.29-1.56-1.705-2.54-.415-.979-.623-2.033-.623-3.162 0-1.128.208-2.182.623-3.161.415-.98.987-1.831 1.716-2.551.729-.721 1.583-1.285 2.563-1.693.98-.407 2.034-.611 3.162-.611"/><path d="m369.72 145.518h1.834v-15.517h-1.834z"/><path d="m386.953 141.709v-11.708h1.834v15.775h-.682l-9.875-11.919v11.661h-1.834v-15.775h.659z"/><path d="m403.575 131.646h-8.112v4.749h6.207v1.647h-6.207v5.831h8.394v1.645h-10.228v-15.517h9.946z"/><path d="m409.358 131.645926v12.227h2.751c1.05 0 1.983-.158 2.798-.471s1.5-.744 2.057-1.293c.556-.549.979-1.195 1.27-1.94.29-.744.434-1.555.434-2.433 0-.894-.144-1.712-.434-2.457-.291-.744-.714-1.387-1.27-1.927-.557-.542-1.242-.96-2.057-1.259-.815-.297-1.748-.447-2.798-.447zm2.774-1.645c1.317 0 2.5.192 3.551.576 1.049.384 1.935.917 2.657 1.598.72.683 1.272 1.498 1.656 2.445.385.949.577 1.987.577 3.116 0 1.113-.192 2.144-.577 3.092-.384.948-.936 1.771-1.656 2.468-.722.698-1.608 1.243-2.657 1.634-1.051.393-2.234.588-3.551.588h-4.608v-15.517z"/></g></svg>